<svg xmlns="http://www.w3.org/2000/svg" width="21" height="21"><path fill="#000000" d="M9.922 7.036c-1.742-3.094-3.591-5.635-3.883-6.032-2.932 1.382-5.125 4.069-5.809 7.32.56.006 4.815.006 9.692-1.288zm7.523-4.409c-1.852-1.633-4.275-2.631-6.939-2.631-.845 0-1.662.109-2.449.298.321.428 2.191 2.958 3.906 6.102 3.691-1.383 5.254-3.446 5.482-3.769zm-3.965 6.875l.225.546c3.449-.432 6.838.238 7.301.335-.027-2.483-.912-4.76-2.378-6.545-.237.322-1.974 2.544-5.853 4.129.247.505.485 1.018.705 1.535zm.869 2.21c1.351 3.711 1.919 6.746 2.046 7.484 2.352-1.594 4.01-4.12 4.475-7.044-.466-.144-3.284-.957-6.521-.44zm-3.112-1.132l.415-.125c-.266-.602-.553-1.202-.855-1.794-5.181 1.549-10.163 1.516-10.779 1.505l-.017.332c0 2.689 1.02 5.135 2.682 6.992.317-.535 3.19-5.178 8.554-6.91zm1.068 1.646c-5.87 2.044-8.015 6.047-8.261 6.54 1.783 1.395 4.022 2.234 6.462 2.234 1.458 0 2.849-.298 4.111-.836-.168-.978-.783-4.163-2.245-7.961l-.067.023z"/></svg>