<svg xmlns="http://www.w3.org/2000/svg" width="19" height="19"><path fill="#000000" d="M9.783 18.961l-8.213-4.742v-9.485l8.213-4.742 8.217 4.742v9.485l-8.217 4.742zm-7.315-5.26l7.315 4.224 7.318-4.224v-8.448l-7.318-4.224-7.315 4.224v8.448zm7.314 2.179l-5.543-3.202v-6.403l5.543-3.202 5.548 3.202v6.404l-5.548 3.201zm-4.645-3.72l4.645 2.684 4.65-2.684v-5.367l-4.65-2.684-4.645 2.684v5.367zm4.644-5.077l-.208.021c.121.222.195.473.195.744 0 .87-.705 1.575-1.575 1.575-.293 0-.563-.085-.797-.223l-.03.3c0 1.334 1.082 2.416 2.416 2.416s2.416-1.082 2.416-2.416c-.001-1.335-1.082-2.417-2.417-2.417z"/></svg>