<svg xmlns="http://www.w3.org/2000/svg" width="19" height="19"><path fill="#1941c4" d="M9.5 5.021c-2.467 0-4.466 1.999-4.466 4.465 0 2.467 2 4.466 4.466 4.466s4.466-2 4.466-4.466-1.999-4.465-4.466-4.465zm0 7.181c-1.501 0-2.716-1.216-2.716-2.716s1.215-2.715 2.716-2.715 2.716 1.216 2.716 2.716-1.215 2.715-2.716 2.715zm6.491-12.202h-12.982c-1.654 0-2.995 1.342-2.995 2.996v12.981c0 1.654 1.341 2.996 2.996 2.996h12.981c1.655 0 2.995-1.341 2.995-2.996v-12.981c0-1.654-1.34-2.996-2.995-2.996zm.998 15.977c0 .552-.447.999-.998.999h-12.982c-.552 0-.999-.447-.999-.999v-9.986h3.252c1.009-1.22 2.532-1.997 4.238-1.997s3.229.778 4.236 1.997h3.253v9.986zm-.998-11.983c-.551 0-.999-.446-.999-.998s.448-.999.999-.999.998.447.998.999-.447.998-.998.998z"/></svg>