<svg xmlns="http://www.w3.org/2000/svg" width="140" height="19"><path fill="#000000" d="M15.706 1.318c-.048-.191-.24-.359-.432-.359h-.384c-.168 0-.36.119-.408.264l-4.993 12.264h-.096l-5.017-12.264c-.047-.145-.264-.264-.408-.264h-.384c-.192 0-.384.168-.432.359l-2.976 16.13c-.048.336.12.552.456.552h1.56c.192 0 .408-.168.432-.336l1.729-10.729h.096l4.345 11.041c.048.145.216.265.408.265h.432c.216 0 .36-.12.408-.265l4.32-11.041h.072l1.776 10.729c.047.168.24.336.456.336h1.56c.336 0 .504-.216.432-.552l-2.952-16.13zm13.318-.12h-1.584c-.24 0-.456.217-.456.456v15.89c0 .24.216.456.456.456h1.584c.24 0 .456-.216.456-.456v-15.89c0-.239-.216-.456-.456-.456zm14.88 7.921l6.937-7.057c.336-.36.096-.864-.336-.864h-1.8c-.192 0-.36.12-.456.24l-6.769 6.985v-6.649c0-.312-.264-.576-.576-.576h-1.392c-.336 0-.576.265-.576.576v15.649c0 .312.24.576.576.576h1.392c.312 0 .576-.264.576-.576v-7.464l6.984 7.873c.049.072.192.168.432.168h1.92c.504 0 .624-.552.432-.792l-7.344-8.089zm25.033-7.921h-9.601c-.264 0-.456.217-.456.456v15.89c0 .24.192.456.456.456h9.601c.264 0 .456-.216.456-.456v-1.32c0-.24-.192-.456-.456-.456h-7.585v-5.16h6.409c.24 0 .456-.192.456-.456v-1.344c0-.24-.216-.456-.456-.456h-6.409v-4.897h7.585c.264 0 .456-.217.456-.456v-1.345c0-.239-.192-.456-.456-.456zm23.926 7.921l6.937-7.057c.337-.36.097-.864-.336-.864h-1.8c-.192 0-.36.12-.456.24l-6.769 6.984v-6.648c0-.312-.264-.576-.576-.576h-1.393c-.336 0-.576.265-.576.576v15.649c0 .312.24.576.576.576h1.393c.312 0 .576-.264.576-.576v-7.464l6.984 7.873c.049.072.192.168.432.168h1.92c.505 0 .625-.552.433-.792l-7.345-8.089zm27.217-7.921h-1.608c-.264 0-.456.217-.456.456v9.961c0 2.376-1.561 4.225-4.032 4.225-2.448 0-3.984-1.872-3.984-4.272v-9.914c0-.239-.192-.456-.456-.456h-1.607c-.24 0-.457.217-.457.456v10.081c0 3.648 2.736 6.505 6.505 6.505 3.792 0 6.553-2.856 6.553-6.505v-10.081c-.002-.239-.218-.456-.458-.456zm14.111 7.129c-1.992-.816-3.049-1.656-3.049-3.024 0-.888.696-2.16 2.713-2.16 1.392 0 3.072 1.104 3.24 1.2.336.216.647.072.84-.24l.6-.912c.24-.359.049-.695-.144-.815-.24-.168-2.04-1.416-4.44-1.416-3.816 0-5.257 2.567-5.257 4.439 0 2.785 1.921 4.057 4.368 5.089 2.377.984 3.625 1.896 3.625 3.336 0 1.225-1.057 2.232-2.713 2.232-1.848 0-3.695-1.536-3.84-1.656-.264-.216-.6-.12-.816.192l-.624.984c-.239.407-.071.575.144.768.385.36 2.232 1.896 5.161 1.896 3.12 0 5.353-2.04 5.353-4.536 0-2.929-2.377-4.249-5.161-5.377z"/></svg>